<?xml version="1.0" encoding="UTF-8" standalone="no"?>
<!DOCTYPE svg PUBLIC "-//W3C//DTD SVG 1.1//EN"
 "http://www.w3.org/Graphics/SVG/1.1/DTD/svg11.dtd">
<!-- Generated by graphviz version 2.38.0 (20140413.2041)
 -->
<!-- Title: %3 Pages: 1 -->
<svg width="175pt" height="158pt"
 viewBox="0.00 0.00 175.33 157.54" xmlns="http://www.w3.org/2000/svg" xmlns:xlink="http://www.w3.org/1999/xlink">
<g id="graph0" class="graph" transform="scale(1 1) rotate(0) translate(4 153.543)">
<title>%3</title>
<polygon fill="#ffffdd" stroke="none" points="-4,4 -4,-153.543 171.331,-153.543 171.331,4 -4,4"/>
<!-- root -->
<g id="node1" class="node"><title>root</title>
<ellipse fill="#ffcc90" stroke="#cc6666" cx="92.5538" cy="-74.7713" rx="30.5947" ry="18"/>
<text text-anchor="middle" x="92.5538" y="-71.0713" font-family="MS gothic" font-size="14.00" fill="#333333">root</text>
</g>
<!-- google -->
<g id="node2" class="node"><title>google</title>
<g id="a_node2"><a xlink:href="https://google.com/" xlink:title="google" target="_blank">
<polygon fill="#ffcc90" stroke="#cc6666" points="156.331,-149.543 106.331,-149.543 106.331,-153.543 94.3308,-153.543 94.3308,-113.543 156.331,-113.543 156.331,-149.543"/>
<polyline fill="none" stroke="#cc6666" points="94.3308,-149.543 106.331,-149.543 "/>
<text text-anchor="middle" x="125.331" y="-127.843" font-family="MS gothic" font-size="14.00" fill="#333333">google</text>
</a>
</g>
</g>
<!-- root&#45;&gt;google -->
<g id="edge1" class="edge"><title>root&#45;&gt;google</title>
<path fill="none" stroke="#cc6666" d="M102.566,-92.113C104.891,-96.1401 107.419,-100.519 109.917,-104.845"/>
<polygon fill="#cc6666" stroke="#cc6666" points="106.895,-106.611 114.926,-113.521 112.957,-103.111 106.895,-106.611"/>
</g>
<!-- w3c -->
<g id="node3" class="node"><title>w3c</title>
<g id="a_node3"><a xlink:href="https://www.w3.org/" xlink:title="W3C" target="_blank">
<polygon fill="#ffcc90" stroke="#cc6666" points="54,-92.7713 12,-92.7713 12,-96.7713 0,-96.7713 0,-56.7713 54,-56.7713 54,-92.7713"/>
<polyline fill="none" stroke="#cc6666" points="0,-92.7713 12,-92.7713 "/>
<text text-anchor="middle" x="27" y="-71.0713" font-family="MS gothic" font-size="14.00" fill="#333333">W3C</text>
</a>
</g>
</g>
<!-- root&#45;&gt;w3c -->
<g id="edge2" class="edge"><title>root&#45;&gt;w3c</title>
<path fill="none" stroke="#cc6666" d="M61.6965,-74.7713C61.5387,-74.7713 61.3809,-74.7713 61.2231,-74.7713"/>
<polygon fill="#cc6666" stroke="#cc6666" points="64.1395,-71.2714 54.1394,-74.7713 64.1394,-78.2714 64.1395,-71.2714"/>
</g>
<!-- bitbucket -->
<g id="node4" class="node"><title>bitbucket</title>
<g id="a_node4"><a xlink:href="https://bitbucket.org/product" xlink:title="bitbucket" target="_blank">
<polygon fill="#ffcc90" stroke="#cc6666" points="167.331,-36 95.3308,-36 95.3308,-40 83.3308,-40 83.3308,7.10543e-015 167.331,7.10543e-015 167.331,-36"/>
<polyline fill="none" stroke="#cc6666" points="83.3308,-36 95.3308,-36 "/>
<text text-anchor="middle" x="125.331" y="-14.3" font-family="MS gothic" font-size="14.00" fill="#333333">bitbucket</text>
</a>
</g>
</g>
<!-- root&#45;&gt;bitbucket -->
<g id="edge3" class="edge"><title>root&#45;&gt;bitbucket</title>
<path fill="none" stroke="#cc6666" d="M102.566,-57.4296C104.891,-53.4024 107.419,-49.024 109.917,-44.698"/>
<polygon fill="#cc6666" stroke="#cc6666" points="112.957,-46.4316 114.926,-36.0213 106.895,-42.9315 112.957,-46.4316"/>
</g>
</g>
</svg>
